<svg width="35" height="35" viewBox="0 0 35 35" fill="none" xmlns="http://www.w3.org/2000/svg">
<path d="M7.77886 24.3407H6.36448C5.61424 24.3407 4.89473 24.0427 4.36423 23.5122C3.83374 22.9817 3.53571 22.2622 3.53571 21.5119V7.36808C3.53571 6.61784 3.83374 5.89833 4.36423 5.36783C4.89473 4.83734 5.61424 4.53931 6.36448 4.53931H28.9946C29.7449 4.53931 30.4644 4.83734 30.9949 5.36783C31.5254 5.89833 31.8234 6.61784 31.8234 7.36808V21.5119C31.8234 22.2622 31.5254 22.9817 30.9949 23.5122C30.4644 24.0427 29.7449 24.3407 28.9946 24.3407H27.5803" stroke="#002E2C" stroke-width="2.26302" stroke-linecap="round" stroke-linejoin="round"/>
<path d="M17.6796 21.5122L24.7515 29.9985H10.6076L17.6796 21.5122Z" stroke="#002E2C" stroke-width="2.26302" stroke-linecap="round" stroke-linejoin="round"/>
</svg>
