<?xml version="1.0" standalone="no"?>
<!DOCTYPE svg PUBLIC "-//W3C//DTD SVG 20010904//EN"
 "http://www.w3.org/TR/2001/REC-SVG-20010904/DTD/svg10.dtd">
<svg version="1.0" xmlns="http://www.w3.org/2000/svg"
 width="64.000000pt" height="63.000000pt" viewBox="0 0 64.000000 63.000000"
 preserveAspectRatio="xMidYMid meet">
<metadata>
Created by potrace 1.10, written by Peter Selinger 2001-2011
</metadata>
<g transform="translate(0.000000,63.000000) scale(0.100000,-0.100000)"
fill="#000000" stroke="none">
<path d="M305 621 c-3 -2 -5 -19 -5 -38 0 -21 -4 -32 -12 -30 -8 1 -15 -13
-18 -38 -3 -22 -13 -57 -23 -77 -9 -21 -17 -53 -17 -73 l0 -35 -84 0 c-77 0
-85 -2 -110 -26 -30 -31 -35 -77 -10 -112 14 -20 14 -24 0 -44 -24 -34 -20
-85 9 -113 l24 -25 261 0 261 0 24 25 c24 23 25 29 25 156 0 115 -3 139 -21
177 -23 47 -83 97 -129 107 -25 5 -29 12 -32 43 -2 28 -7 36 -20 34 -13 -2
-18 6 -20 34 -3 36 -3 36 -51 38 -26 1 -50 0 -52 -3z m75 -51 c0 -13 -7 -20
-20 -20 -13 0 -20 7 -20 20 0 13 7 20 20 20 13 0 20 -7 20 -20z m30 -70 c0
-18 -7 -20 -55 -20 -48 0 -55 2 -55 20 0 18 7 20 55 20 48 0 55 -2 55 -20z
m102 -77 c71 -41 94 -113 86 -273 -4 -109 -6 -110 -169 -110 -103 0 -131 3
-143 16 -13 13 -16 44 -16 185 0 105 4 178 11 191 10 19 18 20 104 16 68 -4
102 -10 127 -25z m-282 -143 c0 -17 -8 -19 -72 -22 -57 -2 -73 -6 -73 -18 0
-12 15 -15 73 -15 62 0 72 -2 72 -17 0 -16 -10 -18 -80 -18 -73 0 -81 2 -95
24 -13 19 -13 28 -4 49 14 31 24 34 112 36 60 1 67 -1 67 -19z m0 -150 c0 -18
-7 -20 -75 -20 -60 0 -75 -3 -75 -15 0 -12 15 -15 75 -15 64 0 76 -3 85 -20
10 -19 8 -20 -75 -20 -72 0 -88 3 -106 21 -14 14 -18 27 -13 42 13 42 24 47
105 47 72 0 79 -2 79 -20z"/>
<path d="M417 404 c-12 -13 -8 -103 7 -139 17 -39 68 -75 109 -75 26 0 27 2
27 56 0 62 -22 118 -55 140 -26 17 -78 28 -88 18z m75 -61 c22 -21 28 -36 28
-70 0 -49 -11 -53 -45 -18 -19 18 -25 35 -25 70 0 25 3 45 7 45 4 0 20 -12 35
-27z"/>
</g>
</svg>
