<?xml version="1.0" standalone="no"?>
<!DOCTYPE svg PUBLIC "-//W3C//DTD SVG 20010904//EN"
 "http://www.w3.org/TR/2001/REC-SVG-20010904/DTD/svg10.dtd">
<svg version="1.0" xmlns="http://www.w3.org/2000/svg"
 width="63.000000pt" height="63.000000pt" viewBox="0 0 63.000000 63.000000"
 preserveAspectRatio="xMidYMid meet">
<metadata>
Created by potrace 1.10, written by Peter Selinger 2001-2011
</metadata>
<g transform="translate(0.000000,63.000000) scale(0.100000,-0.100000)"
fill="#000000" stroke="none">
<path d="M342 620 c-12 -5 -27 -20 -33 -34 -13 -27 -44 -37 -78 -24 -12 4 -30
4 -39 -1 -9 -5 -31 -6 -49 -4 -25 4 -37 -1 -57 -20 -14 -15 -26 -36 -26 -49 0
-13 -7 -32 -15 -42 -23 -30 -18 -74 10 -101 13 -14 29 -25 36 -25 8 0 10 -13
6 -44 -9 -62 8 -111 49 -143 19 -16 43 -42 53 -59 10 -17 34 -38 54 -47 40
-19 118 -22 150 -6 39 20 154 146 166 182 14 42 0 116 -31 159 -15 22 -18 32
-9 41 21 21 11 53 -30 97 -23 25 -47 59 -55 76 -9 21 -25 36 -45 43 -18 6 -32
11 -33 10 -1 0 -11 -4 -24 -9z m52 -36 c9 -3 16 -18 16 -33 0 -18 7 -29 23
-36 12 -6 23 -20 25 -32 2 -15 10 -23 23 -23 12 0 19 -7 19 -20 0 -23 -28 -27
-36 -5 -4 8 -19 15 -35 15 -18 0 -32 7 -39 21 -11 20 -13 20 -30 4 -19 -17
-50 -14 -50 4 0 6 9 15 20 21 15 8 19 17 14 35 -11 46 8 65 50 49z m-156 -66
c10 -10 17 -10 33 0 19 12 20 11 14 -21 -4 -21 -3 -37 4 -41 6 -4 11 -12 11
-18 0 -6 -6 -6 -15 2 -13 10 -19 9 -35 -5 -17 -16 -24 -16 -44 -5 -30 16 -45
7 -39 -23 3 -14 -3 -29 -17 -42 -46 -42 -108 27 -67 73 9 10 17 31 19 47 3 27
6 30 40 30 20 0 40 3 44 8 11 11 39 8 52 -5z m161 -100 c20 -7 42 -19 49 -25
7 -7 20 -13 27 -13 7 0 26 -25 41 -55 29 -61 29 -124 0 -154 -15 -14 -16 -10
-16 44 0 98 -50 154 -142 158 -40 2 -41 1 -54 -45 -16 -51 -51 -84 -103 -94
-28 -6 -31 -10 -31 -43 l-1 -36 -20 25 c-32 38 -22 112 20 150 17 16 31 36 31
44 0 11 9 16 29 16 17 0 32 4 35 8 3 5 18 7 34 4 18 -2 33 2 41 12 16 19 16
19 60 4z m12 -94 c77 -39 79 -185 4 -254 -21 -20 -37 -25 -80 -25 -60 0 -97
25 -121 82 -22 52 -18 70 17 77 40 8 97 65 105 105 7 36 28 40 75 15z"/>
<path d="M276 141 c-10 -16 4 -38 31 -50 45 -21 113 23 84 52 -7 7 -17 5 -29
-6 -23 -21 -36 -21 -52 -2 -14 17 -26 19 -34 6z"/>
<path d="M523 620 c-50 -20 -30 -100 25 -100 16 0 33 5 40 12 20 20 14 65 -10
82 -25 18 -25 18 -55 6z m42 -50 c0 -22 -29 -18 -33 3 -3 14 1 18 15 15 10 -2
18 -10 18 -18z"/>
</g>
</svg>
