<?xml version="1.0" standalone="no"?>
<!DOCTYPE svg PUBLIC "-//W3C//DTD SVG 20010904//EN"
 "http://www.w3.org/TR/2001/REC-SVG-20010904/DTD/svg10.dtd">
<svg version="1.0" xmlns="http://www.w3.org/2000/svg"
 width="63.000000pt" height="63.000000pt" viewBox="0 0 63.000000 63.000000"
 preserveAspectRatio="xMidYMid meet">
<metadata>
Created by potrace 1.10, written by Peter Selinger 2001-2011
</metadata>
<g transform="translate(0.000000,63.000000) scale(0.100000,-0.100000)"
fill="#000000" stroke="none">
<path d="M66 622 c-9 -2 -21 -15 -27 -28 -5 -14 -9 -141 -9 -282 0 -217 2
-261 16 -280 15 -22 18 -22 274 -22 246 0 260 1 270 19 15 30 14 552 -2 574
-12 15 -40 18 -259 20 -135 1 -253 0 -263 -1z m496 -77 l3 -45 -247 0 -248 0
0 45 0 45 244 0 244 0 4 -45z m-2 -290 l0 -215 -242 2 -243 3 -3 213 -2 212
245 0 245 0 0 -215z"/>
<path d="M385 560 c-10 -17 5 -30 34 -30 34 0 44 9 30 27 -13 15 -55 18 -64 3z"/>
<path d="M486 563 c-16 -16 -4 -33 23 -33 26 0 50 15 40 24 -10 8 -57 15 -63
9z"/>
<path d="M263 419 c-48 -14 -99 -68 -113 -118 -36 -134 91 -255 223 -212 20 7
51 30 71 51 95 106 33 266 -110 284 -22 3 -53 1 -71 -5z m127 -51 c17 -13 39
-36 49 -51 15 -27 15 -29 -4 -43 -13 -10 -30 -13 -50 -9 -28 7 -78 8 -153 3
-49 -2 -59 14 -33 55 40 66 130 86 191 45z m-38 -134 c28 -14 50 -14 92 2 28
11 -2 -52 -40 -86 -64 -56 -174 -33 -211 45 -20 42 -16 48 23 33 24 -9 36 -8
59 5 38 20 40 20 77 1z"/>
</g>
</svg>
