<svg width="30" height="31" viewBox="0 0 30 31" fill="none" xmlns="http://www.w3.org/2000/svg">
<path d="M22.6153 10.6153C22.6153 8.65681 21.8373 6.7785 20.4524 5.39362C19.0676 4.00873 17.1893 3.23071 15.2307 3.23071C13.2722 3.23071 11.3939 4.00873 10.009 5.39362C8.62414 6.7785 7.84612 8.65681 7.84612 10.6153C7.84612 19.2307 4.15381 21.6923 4.15381 21.6923H26.3077C26.3077 21.6923 22.6153 19.2307 22.6153 10.6153Z" stroke="black" stroke-width="2.46154" stroke-linecap="round" stroke-linejoin="round"/>
<path d="M17.36 26.6154C17.1436 26.9884 16.8331 27.298 16.4594 27.5132C16.0857 27.7285 15.662 27.8418 15.2308 27.8418C14.7996 27.8418 14.3759 27.7285 14.0022 27.5132C13.6285 27.298 13.3179 26.9884 13.1016 26.6154" stroke="black" stroke-width="2.46154" stroke-linecap="round" stroke-linejoin="round"/>
</svg>
