<svg width="35" height="35" viewBox="0 0 35 35" fill="none" xmlns="http://www.w3.org/2000/svg">
<path d="M30.7061 22.832C29.8063 24.9599 28.3989 26.835 26.607 28.2934C24.8151 29.7517 22.6933 30.7489 20.427 31.1978C18.1606 31.6466 15.8189 31.5335 13.6064 30.8682C11.3939 30.203 9.37805 29.0059 7.7351 27.3816C6.09214 25.7573 4.87209 23.7552 4.18161 21.5505C3.49114 19.3457 3.35127 17.0054 3.77422 14.7341C4.19717 12.4628 5.17007 10.3297 6.60787 8.52127C8.04566 6.71284 9.90457 5.28415 12.0221 4.36011" stroke="#002E2C" stroke-width="2.26302" stroke-linecap="round" stroke-linejoin="round"/>
<path d="M31.8234 17.3299C31.8234 15.4725 31.4576 13.6333 30.7468 11.9173C30.036 10.2013 28.9942 8.64205 27.6808 7.32867C26.3674 6.0153 24.8082 4.97347 23.0922 4.26267C21.3762 3.55188 19.537 3.18604 17.6796 3.18604V17.3299H31.8234Z" stroke="#002E2C" stroke-width="2.26302" stroke-linecap="round" stroke-linejoin="round"/>
</svg>
