<?xml version="1.0" standalone="no"?>
<!DOCTYPE svg PUBLIC "-//W3C//DTD SVG 20010904//EN"
 "http://www.w3.org/TR/2001/REC-SVG-20010904/DTD/svg10.dtd">
<svg version="1.0" xmlns="http://www.w3.org/2000/svg"
 width="63.000000pt" height="63.000000pt" viewBox="0 0 63.000000 63.000000"
 preserveAspectRatio="xMidYMid meet">
<metadata>
Created by potrace 1.10, written by Peter Selinger 2001-2011
</metadata>
<g transform="translate(0.000000,63.000000) scale(0.100000,-0.100000)"
fill="#000000" stroke="none">
<path d="M62 614 c-41 -28 -19 -94 32 -94 28 0 56 29 56 58 0 20 -33 52 -55
52 -6 0 -21 -7 -33 -16z m48 -37 c0 -8 -3 -17 -7 -20 -9 -9 -34 13 -27 24 8
14 34 11 34 -4z"/>
<path d="M210 570 c-11 -11 -20 -29 -20 -39 0 -28 -42 -90 -61 -91 -34 0 -47
-32 -47 -119 0 -58 -7 -104 -22 -152 -24 -74 -22 -107 10 -139 19 -19 34 -20
244 -20 l224 0 26 31 c31 37 32 53 6 119 -11 28 -20 68 -20 90 0 21 -5 51 -10
66 -9 23 -7 31 15 54 48 50 41 120 -17 163 -22 17 -40 20 -95 18 -37 -1 -78
-3 -91 -3 -13 0 -32 9 -43 21 -25 27 -73 27 -99 1z m74 -26 c19 -18 19 -20 6
-45 -17 -31 -70 -18 -70 17 0 14 27 44 40 44 5 0 16 -7 24 -16z m93 -39 c10 5
41 10 70 11 40 2 57 -2 77 -17 34 -27 35 -71 1 -104 -27 -28 -42 -30 -81 -13
-24 11 -28 10 -46 -15 -26 -36 -71 -37 -94 -2 -13 19 -20 23 -34 15 -10 -5
-32 -7 -48 -4 -25 5 -31 2 -37 -15 -9 -29 -61 -29 -70 -1 -9 27 11 50 42 50
13 0 26 7 28 15 3 8 7 22 9 29 4 13 9 13 34 0 40 -19 80 -4 95 36 8 22 14 27
24 18 7 -6 21 -7 30 -3z m123 -185 c5 -9 13 -51 18 -92 5 -41 15 -84 21 -96
29 -54 0 -92 -71 -92 l-49 0 28 37 c26 34 28 43 28 127 l0 91 -37 -3 c-53 -5
-62 5 -32 32 31 26 79 24 94 -4z m-213 3 c6 -17 -52 -50 -100 -58 l-39 -7 4
-72 c3 -61 8 -79 31 -109 l28 -37 -50 0 c-78 0 -99 35 -66 113 8 20 15 54 15
76 0 56 8 71 40 71 15 0 35 9 45 20 21 23 85 25 92 3z m75 -48 c16 -14 40 -25
54 -25 23 0 24 -3 24 -57 0 -40 -6 -68 -20 -90 -45 -74 -139 -83 -197 -19 -29
31 -33 43 -33 89 l0 54 40 12 c22 6 52 23 67 36 16 13 30 25 32 25 2 0 16 -11
33 -25z"/>
<path d="M440 466 c0 -8 9 -18 20 -21 11 -3 20 -13 20 -21 0 -9 7 -14 18 -12
18 4 18 33 0 56 -14 17 -58 15 -58 -2z"/>
<path d="M337 444 c-14 -15 -6 -34 14 -34 14 0 19 5 17 17 -3 18 -20 27 -31
17z"/>
<path d="M231 220 c-16 -9 -6 -30 15 -30 15 0 20 25 6 34 -4 2 -14 1 -21 -4z"/>
<path d="M373 215 c-7 -20 2 -29 21 -22 9 4 13 13 10 22 -8 19 -23 19 -31 0z"/>
<path d="M260 131 c0 -26 26 -51 54 -51 26 0 56 29 56 53 0 26 -37 21 -44 -5
l-7 -23 -16 23 c-19 27 -43 29 -43 3z"/>
<path d="M40 466 c0 -8 4 -17 8 -20 13 -8 35 11 28 23 -10 16 -36 14 -36 -3z"/>
</g>
</svg>
