<svg width="35" height="35" viewBox="0 0 35 35" fill="none" xmlns="http://www.w3.org/2000/svg">
<g clip-path="url(#clip0_459_51)">
<path d="M17.6796 1.80664V32.9231" stroke="#002E2C" stroke-width="2.26302" stroke-linecap="round" stroke-linejoin="round"/>
<path d="M24.7515 7.46411H14.1436C12.8307 7.46411 11.5715 7.98566 10.6432 8.91404C9.71479 9.84241 9.19324 11.1015 9.19324 12.4145C9.19324 13.7274 9.71479 14.9865 10.6432 15.9149C11.5715 16.8433 12.8307 17.3648 14.1436 17.3648H21.2155C22.5284 17.3648 23.7876 17.8864 24.7159 18.8147C25.6443 19.7431 26.1659 21.0022 26.1659 22.3152C26.1659 23.6281 25.6443 24.8872 24.7159 25.8156C23.7876 26.744 22.5284 27.2655 21.2155 27.2655H9.19324" stroke="#002E2C" stroke-width="2.26302" stroke-linecap="round" stroke-linejoin="round"/>
</g>
<defs>
<clipPath id="clip0_459_51">
<rect width="33.9453" height="33.9453" fill="white" transform="translate(0.706909 0.39209)"/>
</clipPath>
</defs>
</svg>
